<?xml version="1.0" encoding="UTF-8" standalone="no"?>
<!-- Created with Inkscape (http://www.inkscape.org/) -->

<svg
   xmlns:dc="http://purl.org/dc/elements/1.1/"
   xmlns:cc="http://creativecommons.org/ns#"
   xmlns:rdf="http://www.w3.org/1999/02/22-rdf-syntax-ns#"
   xmlns:svg="http://www.w3.org/2000/svg"
   xmlns="http://www.w3.org/2000/svg"
   xmlns:sodipodi="http://sodipodi.sourceforge.net/DTD/sodipodi-0.dtd"
   xmlns:inkscape="http://www.inkscape.org/namespaces/inkscape"
   width="9.6150837mm"
   height="12.693193mm"
   viewBox="0 0 34.069194 44.975882"
   id="svg7127"
   version="1.1"
   inkscape:version="0.91 r13725">
  <defs
     id="defs7129" />
  <sodipodi:namedview
     id="base"
     pagecolor="#ffffff"
     bordercolor="#666666"
     borderopacity="1.0"
     inkscape:pageopacity="0.0"
     inkscape:pageshadow="2"
     inkscape:zoom="7.9195959"
     inkscape:cx="-9.2416878"
     inkscape:cy="14.47978"
     inkscape:document-units="px"
     inkscape:current-layer="layer1"
     showgrid="false"
     fit-margin-top="0"
     fit-margin-left="0"
     fit-margin-right="0"
     fit-margin-bottom="0"
     inkscape:window-width="1615"
     inkscape:window-height="1026"
     inkscape:window-x="65"
     inkscape:window-y="24"
     inkscape:window-maximized="1" />
  <metadata
     id="metadata7132">
    <rdf:RDF>
      <cc:Work
         rdf:about="">
        <dc:format>image/svg+xml</dc:format>
        <dc:type
           rdf:resource="http://purl.org/dc/dcmitype/StillImage" />
        <dc:title></dc:title>
      </cc:Work>
    </rdf:RDF>
  </metadata>
  <g
     inkscape:label="Layer 1"
     inkscape:groupmode="layer"
     id="layer1"
     transform="translate(-325.82255,-304.15997)">
    <ellipse
       style="fill:#000000;fill-opacity:0.08542714;stroke:none;stroke-width:4.19999981;stroke-miterlimit:4;stroke-dasharray:none;stroke-opacity:1"
       id="path4874"
       cx="342.33487"
       cy="347.3371"
       rx="14.11333"
       ry="1.7987577" />
    <path
       style="fill:#80afc3;fill-opacity:1;fill-rule:evenodd;stroke:none;stroke-width:1px;stroke-linecap:butt;stroke-linejoin:miter;stroke-opacity:1"
       d="m 331.16277,327.9219 c 0,0 0.15993,1.37952 -1.41852,1.52247 0,0 -4.13725,-0.0895 -3.90084,2.59716 -0.2385,0.84319 1.59456,1.34209 4.13315,1.63292 l 26.01934,0.10798 c 2.20826,-0.30853 3.81948,-0.84275 3.89131,-1.7409 0.12772,-2.91062 -2.47383,-1.95553 -4.09781,-2.80895 -0.71759,-0.37709 -1.03099,-0.91492 -1.10337,-1.84803 l -1.1821,-13.70225 c -0.59096,-11.73199 -21.27736,-11.73199 -21.51378,-0.89557 z"
       id="path4187-9"
       inkscape:connector-curvature="0"
       sodipodi:nodetypes="ccccccscccc" />
    <path
       style="fill:#000000;fill-opacity:0.15577889;fill-rule:evenodd;stroke:none;stroke-width:1px;stroke-linecap:butt;stroke-linejoin:miter;stroke-opacity:1"
       d="m 330.01031,329.4081 c 11.78624,-1.48451 14.93738,-0.92428 25.6236,-0.30483 -9.08848,1.09888 -16.93383,0.95562 -25.6236,0.30483 z"
       id="path4191-3"
       inkscape:connector-curvature="0"
       sodipodi:nodetypes="ccc" />
    <path
       style="fill:#5b98b2;fill-opacity:1;fill-rule:evenodd;stroke:none;stroke-width:1px;stroke-linecap:butt;stroke-linejoin:miter;stroke-opacity:1"
       d="m 327.67669,329.50371 c 0.97521,-0.62691 2.10816,-0.33068 2.75824,-0.82324 0,0 0.83676,-7.15645 0.33439,-8.99237 0,0 -1.75531,-3.03967 -2.17325,0.12665 z"
       id="path4194-6"
       inkscape:connector-curvature="0"
       sodipodi:nodetypes="ccccc" />
    <path
       style="fill:#5b98b2;fill-opacity:1;fill-rule:evenodd;stroke:none;stroke-width:1px;stroke-linecap:butt;stroke-linejoin:miter;stroke-opacity:1"
       d="m 358.22438,329.50789 c -0.97515,-0.6269 -2.10811,-0.33067 -2.75825,-0.82324 0,0 -0.83669,-7.15645 -0.33432,-8.99237 0,0 1.75531,-3.03967 2.17319,0.12666 z"
       id="path4194-3-0"
       inkscape:connector-curvature="0"
       sodipodi:nodetypes="ccccc" />
    <path
       inkscape:connector-curvature="0"
       style="fill:#000000;fill-opacity:0.160804;fill-rule:evenodd;stroke:none;stroke-width:1px;stroke-linecap:butt;stroke-linejoin:miter;stroke-opacity:1"
       d="m 342.34653,304.75159 c -0.0988,-0.002 -0.1973,0.004 -0.29603,0.004 -0.11063,0.23021 -0.18108,0.47575 -0.18108,0.73562 l 0,27.80793 c 0,0.13944 0.0213,0.27461 0.0542,0.40651 l 13.80421,0.0568 c 2.20826,-0.30854 3.8198,-0.84248 3.89163,-1.74063 0.12777,-2.91063 -2.47322,-1.95588 -4.0972,-2.8093 -0.71759,-0.37709 -1.0317,-0.91526 -1.10408,-1.84838 l -1.18177,-13.70169 c -0.29548,-5.86599 -5.615,-8.79885 -10.89008,-8.91079 z"
       id="path4187-6-6" />
    <path
       inkscape:connector-curvature="0"
       style="fill:#ffffff;fill-opacity:0.04522615;fill-rule:evenodd;stroke:none;stroke-width:1px;stroke-linecap:butt;stroke-linejoin:miter;stroke-opacity:1"
       d="m 342.56032,304.16406 c -5.27498,-0.13724 -10.50546,3.18277 -10.62369,9.82484 l -0.23659,5.29307 22.04514,0 -0.29477,-4.19435 c -0.29554,-7.191 -5.61506,-10.78633 -10.89009,-10.92356 z"
       id="path4187-7-2" />
    <path
       style="fill:#403f44;fill-opacity:1;fill-rule:evenodd;stroke:none;stroke-width:1px;stroke-linecap:butt;stroke-linejoin:miter;stroke-opacity:1"
       d="m 340.84363,335.97907 2.39708,-0.049 0,2.64167 11.93098,2.79708 0.006,3.95385 -0.53963,0.0189 -0.023,-2.92977 -5.98669,-0.80717 0.0373,3.72926 -0.55985,0.0262 -2.7e-4,-2.45465 -5.05993,-1.34975 -0.0203,2.21844 -2.18114,-0.017 0,-2.10357 -4.91467,1.20571 -0.0351,2.44057 -0.59573,0.017 0.11516,-3.41871 -5.96867,0.53813 -0.0633,2.90381 -0.57223,0.0314 -0.006,-3.94521 11.99148,-2.85464 z"
       id="path4310-6"
       inkscape:connector-curvature="0"
       sodipodi:nodetypes="ccccccccccccccccccccccccc" />
    <circle
       style="fill:#403f44;fill-opacity:1;stroke:none;stroke-width:4.19999981;stroke-miterlimit:4;stroke-dasharray:none;stroke-opacity:1"
       id="path4314-18"
       cx="329.0784"
       cy="346.3793"
       r="0.85609585" />
    <circle
       style="fill:#403f44;fill-opacity:1;stroke:none;stroke-width:4.19999981;stroke-miterlimit:4;stroke-dasharray:none;stroke-opacity:1"
       id="path4314-1-7"
       cx="354.88367"
       cy="346.30112"
       r="0.85609585" />
    <ellipse
       style="fill:#403f44;fill-opacity:1;stroke:none;stroke-width:4.19999981;stroke-miterlimit:4;stroke-dasharray:none;stroke-opacity:1"
       id="path4314-2-9"
       cx="335.60919"
       cy="346.39893"
       rx="0.51365751"
       ry="0.85609585" />
    <ellipse
       style="fill:#403f44;fill-opacity:1;stroke:none;stroke-width:4.19999981;stroke-miterlimit:4;stroke-dasharray:none;stroke-opacity:1"
       id="path4314-2-7-2"
       cx="348.37732"
       cy="346.39893"
       rx="0.51365751"
       ry="0.85609585" />
    <rect
       style="fill:#97939b;fill-opacity:1;stroke:none;stroke-width:4.19999981;stroke-miterlimit:4;stroke-dasharray:none;stroke-opacity:1"
       id="rect4361-02"
       width="1.3871366"
       height="1.7987577"
       x="341.26169"
       y="333.89474"
       ry="0" />
    <rect
       style="fill:#000000;fill-opacity:0.10552763;stroke:none;stroke-width:4.19999981;stroke-miterlimit:4;stroke-dasharray:none;stroke-opacity:1"
       id="rect4361-0-3"
       width="0.6533401"
       height="1.7987577"
       x="341.21649"
       y="333.87424"
       ry="0" />
  </g>
</svg>
