<?xml version="1.0" encoding="UTF-8" standalone="no"?>
<!-- Created with Inkscape (http://www.inkscape.org/) -->

<svg
   xmlns:dc="http://purl.org/dc/elements/1.1/"
   xmlns:cc="http://creativecommons.org/ns#"
   xmlns:rdf="http://www.w3.org/1999/02/22-rdf-syntax-ns#"
   xmlns:svg="http://www.w3.org/2000/svg"
   xmlns="http://www.w3.org/2000/svg"
   xmlns:sodipodi="http://sodipodi.sourceforge.net/DTD/sodipodi-0.dtd"
   xmlns:inkscape="http://www.inkscape.org/namespaces/inkscape"
   width="7.4647641mm"
   height="9.8547325mm"
   viewBox="0 0 26.449951 34.918343"
   id="svg7127"
   version="1.1"
   inkscape:version="0.91 r13725"
   sodipodi:docname="chair.svg">
  <defs
     id="defs7129" />
  <sodipodi:namedview
     id="base"
     pagecolor="#ffffff"
     bordercolor="#666666"
     borderopacity="1.0"
     inkscape:pageopacity="0.0"
     inkscape:pageshadow="2"
     inkscape:zoom="7.9195959"
     inkscape:cx="23.339385"
     inkscape:cy="15.715572"
     inkscape:document-units="px"
     inkscape:current-layer="layer1"
     showgrid="false"
     fit-margin-top="0"
     fit-margin-left="0"
     fit-margin-right="0"
     fit-margin-bottom="0"
     inkscape:window-width="1615"
     inkscape:window-height="1026"
     inkscape:window-x="1745"
     inkscape:window-y="24"
     inkscape:window-maximized="1" />
  <metadata
     id="metadata7132">
    <rdf:RDF>
      <cc:Work
         rdf:about="">
        <dc:format>image/svg+xml</dc:format>
        <dc:type
           rdf:resource="http://purl.org/dc/dcmitype/StillImage" />
        <dc:title></dc:title>
      </cc:Work>
    </rdf:RDF>
  </metadata>
  <g
     inkscape:label="Layer 1"
     inkscape:groupmode="layer"
     id="layer1"
     transform="translate(-328.79872,-311.65997)">
    <ellipse
       style="fill:#000000;fill-opacity:0.08542714;stroke:none;stroke-width:4.19999981;stroke-miterlimit:4;stroke-dasharray:none;stroke-opacity:1"
       id="path4874"
       cx="341.61807"
       cy="345.18179"
       rx="10.95729"
       ry="1.3965174" />
    <path
       class="seat"
       style="fill:#80afc3;fill-opacity:1;fill-rule:evenodd;stroke:none;stroke-width:1px;stroke-linecap:butt;stroke-linejoin:miter;stroke-opacity:1"
       d="m 341.83443,312.13459 c -4.09542,-0.0869 -8.15573,2.01657 -8.24751,6.22316 l -0.64294,11.75032 c 0,0 0.12459,1.07177 -1.10089,1.18275 0,0 -3.21172,-0.0706 -3.02817,2.01526 -0.18517,0.65463 1.23772,1.04189 3.20863,1.26768 l 20.20101,0.0849 c 1.71444,-0.23953 2.96483,-0.6553 3.02059,-1.3526 0.0992,-2.25975 -1.92051,-1.51796 -3.18133,-2.18054 -0.55712,-0.29275 -0.80055,-0.71002 -0.85674,-1.43448 l -0.9174,-10.63881 c -0.22941,-4.55424 -4.35984,-6.83074 -8.45525,-6.91766 z m -10.34768,10.56755 c -0.23092,0.0462 -0.43388,0.34328 -0.53527,1.11149 l -0.71421,7.52268 c 0.75713,-0.48672 1.63791,-0.25748 2.14262,-0.6399 0,0 0.64933,-5.55597 0.2593,-6.98134 0,0 -0.64441,-1.1146 -1.15244,-1.01293 z m 21.07748,0.003 c -0.47847,0.0912 -1.01142,1.01444 -1.01142,1.01444 -0.39003,1.42537 0.26081,6.98135 0.26081,6.98135 0.50476,0.38241 1.38402,0.15167 2.14111,0.63838 l -0.7142,-7.52268 c -0.12167,-0.92185 -0.38923,-1.16623 -0.6763,-1.11149 z"
       id="path4187-9"
       inkscape:connector-curvature="0" />
    <path
       style="fill:#000000;fill-opacity:0.15577889;fill-rule:evenodd;stroke:none;stroke-width:1px;stroke-linecap:butt;stroke-linejoin:miter;stroke-opacity:1"
       d="m 332.04952,331.26208 c 9.1506,-1.15254 11.59708,-0.71759 19.89363,-0.23666 -7.0561,0.85314 -13.14708,0.74192 -19.89363,0.23666 z"
       id="path4191-3"
       inkscape:connector-curvature="0"
       sodipodi:nodetypes="ccc" />
    <path
       inkscape:connector-curvature="0"
       style="fill:#000000;fill-opacity:0.160804;fill-rule:evenodd;stroke:none;stroke-width:1px;stroke-linecap:butt;stroke-linejoin:miter;stroke-opacity:1"
       d="m 341.62711,312.11928 c -0.0767,-10e-4 -0.15318,0.003 -0.22984,0.003 -0.0859,0.17873 -0.14058,0.36936 -0.14058,0.57112 l 0,21.58949 c 0,0.10829 0.0165,0.21319 0.0421,0.3156 l 10.7173,0.0441 c 1.71445,-0.23955 2.96561,-0.65408 3.02138,-1.35139 0.0992,-2.25975 -1.92016,-1.5185 -3.18098,-2.18108 -0.55713,-0.29277 -0.801,-0.71059 -0.85719,-1.43504 l -0.9175,-10.6377 c -0.2294,-4.55423 -4.35937,-6.83125 -8.45482,-6.91816 z"
       id="path4187-6-6" />
    <path
       inkscape:connector-curvature="0"
       style="fill:#ffffff;fill-opacity:0.04522615;fill-rule:evenodd;stroke:none;stroke-width:1px;stroke-linecap:butt;stroke-linejoin:miter;stroke-opacity:1"
       d="m 341.79308,311.66314 c -4.09537,-0.10653 -8.15621,2.47104 -8.248,7.6278 l -0.18369,4.10943 17.11539,0 -0.22885,-3.25641 c -0.22946,-5.58294 -4.35942,-8.37427 -8.45485,-8.48082 z"
       id="path4187-7-2" />
    <path
       style="fill:#403f44;fill-opacity:1;fill-rule:evenodd;stroke:none;stroke-width:1px;stroke-linecap:butt;stroke-linejoin:miter;stroke-opacity:1"
       d="m 340.46028,336.36364 1.86105,-0.038 0,2.05093 9.26296,2.1716 0.004,3.06969 -0.41897,0.0146 -0.0178,-2.27461 -4.64794,-0.62666 0.0289,2.89531 -0.43466,0.0203 -2.1e-4,-1.90573 -3.92842,-1.04792 -0.0157,1.72235 -1.69339,-0.0132 0,-1.63317 -3.81564,0.93609 -0.0273,1.8948 -0.46251,0.0132 0.0894,-2.65422 -4.63395,0.4178 -0.0491,2.25445 -0.44426,0.0244 -0.004,-3.06298 9.30993,-2.21628 z"
       id="path4310-6"
       inkscape:connector-curvature="0"
       sodipodi:nodetypes="ccccccccccccccccccccccccc" />
    <circle
       style="fill:#403f44;fill-opacity:1;stroke:none;stroke-width:4.19999981;stroke-miterlimit:4;stroke-dasharray:none;stroke-opacity:1"
       id="path4314-18"
       cx="331.32602"
       cy="344.43817"
       r="0.66465467" />
    <circle
       style="fill:#403f44;fill-opacity:1;stroke:none;stroke-width:4.19999981;stroke-miterlimit:4;stroke-dasharray:none;stroke-opacity:1"
       id="path4314-1-7"
       cx="351.36066"
       cy="344.37744"
       r="0.66465467" />
    <ellipse
       style="fill:#403f44;fill-opacity:1;stroke:none;stroke-width:4.19999981;stroke-miterlimit:4;stroke-dasharray:none;stroke-opacity:1"
       id="path4314-2-9"
       cx="336.39636"
       cy="344.4534"
       rx="0.3987928"
       ry="0.66465467" />
    <ellipse
       style="fill:#403f44;fill-opacity:1;stroke:none;stroke-width:4.19999981;stroke-miterlimit:4;stroke-dasharray:none;stroke-opacity:1"
       id="path4314-2-7-2"
       cx="346.3093"
       cy="344.4534"
       rx="0.3987928"
       ry="0.66465467" />
    <rect
       style="fill:#97939b;fill-opacity:1;stroke:none;stroke-width:4.19999981;stroke-miterlimit:4;stroke-dasharray:none;stroke-opacity:1"
       id="rect4361-02"
       width="1.0769434"
       height="1.3965174"
       x="340.78485"
       y="334.74542"
       ry="0" />
    <rect
       style="fill:#000000;fill-opacity:0.10552763;stroke:none;stroke-width:4.19999981;stroke-miterlimit:4;stroke-dasharray:none;stroke-opacity:1"
       id="rect4361-0-3"
       width="0.5072394"
       height="1.3965174"
       x="340.74976"
       y="334.72946"
       ry="0" />
  </g>
</svg>
